<?xml version="1.0" encoding="UTF-8"?>
<!-- Generator: Adobe Illustrator 16.0.4, SVG Export Plug-In . SVG Version: 6.00 Build 0)  -->
<!DOCTYPE svg PUBLIC "-//W3C//DTD SVG 1.1//EN" "http://www.w3.org/Graphics/SVG/1.1/DTD/svg11.dtd">
<svg version="1.1" id="Layer_1" xmlns="http://www.w3.org/2000/svg" xmlns:xlink="http://www.w3.org/1999/xlink" x="0px" y="0px" width="365.235px" height="51.09px" viewBox="0 0 365.235 51.09" enable-background="new 0 0 365.235 51.09" xml:space="preserve">
<path fill="#1F3244" d="M66.606,6.77h13.551c13.204,0,24.265,5.618,24.265,20.617c0,13.262-10.829,20.385-23.049,20.385H66.606V6.77  z M75.64,39.433h4.691c8.397,0,14.71-3.186,14.71-12.509c0-8.05-6.429-11.814-14.073-11.814H75.64V39.433z"/>
<path fill="#1F3244" d="M109.115,19.626h8.687v4.517h0.116c1.853-3.416,4.285-5.212,8.107-5.212c0.985,0,2.085,0.058,2.896,0.29  v7.934c-1.216-0.349-2.432-0.579-3.706-0.579c-6.602,0-7.413,3.822-7.413,9.438v11.757h-8.687V19.626z"/>
<path fill="#1F3244" d="M158.405,42.906c-2.78,3.533-7.355,5.561-11.872,5.561c-8.687,0-15.636-5.791-15.636-14.769  c0-8.976,6.949-14.767,15.636-14.767c8.107,0,13.204,5.791,13.204,14.767v2.723h-20.154c0.695,3.301,3.185,5.443,6.544,5.443  c2.838,0,4.749-1.447,6.197-3.417L158.405,42.906z M151.05,30.514c0.058-2.896-2.201-5.328-5.328-5.328  c-3.822,0-5.907,2.606-6.139,5.328H151.05z"/>
<path fill="#1F3244" d="M181.652,44.238h-0.116c-1.911,3.012-5.386,4.228-8.918,4.228c-5.271,0-10.019-3.011-10.019-8.686  c0-9.73,11.814-9.903,19.053-9.903c0-3.069-2.548-5.039-5.56-5.039c-2.837,0-5.212,1.274-7.065,3.359l-4.633-4.749  c3.185-3.011,7.818-4.517,12.393-4.517c10.135,0,12.857,5.154,12.857,14.536v14.305h-7.992V44.238z M179.509,35.437  c-2.664,0-8.571,0.231-8.571,4.054c0,2.085,2.201,3.069,4.112,3.069c3.417,0,6.602-1.795,6.602-5.27v-1.854H179.509z"/>
<path fill="#1F3244" d="M195.089,19.626h8.34v3.822h0.116c1.157-2.2,3.995-4.517,8.223-4.517c3.938,0,7.181,1.622,8.687,5.038  c2.027-3.59,4.749-5.038,8.919-5.038c7.645,0,9.961,5.386,9.961,12.22v16.62h-8.687v-16.39c0-2.605-0.985-4.806-3.822-4.806  c-3.997,0-5.271,2.837-5.271,6.312v14.884h-8.687V32.888c0-2.085,0.115-6.312-3.881-6.312c-4.517,0-5.212,3.532-5.212,7.181v14.015  h-8.687V19.626z"/>
<polygon fill="#1F3244" points="244.837,6.77 253.871,6.77 253.871,22.059 271.419,22.059 271.419,6.77 280.453,6.77   280.453,47.771 271.419,47.771 271.419,30.051 253.871,30.051 253.871,47.771 244.837,47.771 "/>
<path fill="#1F3244" d="M299.972,18.931c8.688,0,15.636,5.791,15.636,14.768c0,8.977-6.948,14.768-15.636,14.768  c-8.687,0-15.636-5.791-15.636-14.768C284.336,24.722,291.285,18.931,299.972,18.931 M299.972,40.822c4.343,0,6.95-2.896,6.95-7.123  c0-4.228-2.607-7.123-6.95-7.123c-4.344,0-6.95,2.896-6.95,7.123C293.021,37.926,295.628,40.822,299.972,40.822"/>
<path fill="#1F3244" d="M335.53,27.908c-1.274-1.564-2.953-2.375-5.038-2.375c-1.448,0-3.186,0.638-3.186,2.317  c0,4.17,14.652,0.638,14.652,11.352c0,7.181-6.949,9.266-12.973,9.266c-3.938,0-8.282-0.985-11.061-3.823l5.27-5.849  c1.621,1.969,3.533,3.07,6.138,3.07c1.971,0,3.939-0.522,3.939-2.027c0-4.517-14.652-0.695-14.652-11.409  c0-6.602,5.906-9.498,11.814-9.498c3.706,0,7.817,0.927,10.424,3.707L335.53,27.908z"/>
<path fill="#1F3244" d="M365.235,26.576h-7.646v9.381c0,3.012,0.349,5.213,4.112,5.213c0.927,0,2.78-0.116,3.533-0.811v7.238  c-1.911,0.695-4.055,0.869-6.081,0.869c-5.791,0-10.25-2.375-10.25-8.514V26.576h-5.561v-6.95h5.561v-8.339h8.686v8.339h7.646  V26.576z"/>
<path fill="#1F3244" d="M51.092,38.375c-4.194,2.34-9.063,3.639-14.239,3.533C21.595,41.601,9.472,29.235,9.771,14.295  c0.107-5.074,1.624-9.783,4.189-13.789C5.791,5.067,0.208,13.596,0.005,23.469c-0.302,14.942,11.831,27.307,27.093,27.615  C37.175,51.289,46.108,46.18,51.092,38.375"/>
<path fill="#3E95BE" d="M36.574,38.695c0.169,0.003,0.339,0.006,0.509,0.006c3.982,0,7.91-0.986,11.402-2.842  c2.058-3.528,3.256-7.623,3.256-12.008C51.741,10.681,41.093,0,27.955,0c-4.142,0-8.035,1.066-11.425,2.933  c-2.19,3.524-3.397,7.576-3.485,11.738C12.785,27.648,23.339,38.428,36.574,38.695"/>
</svg>